STARTFONT 2.1
FONT -artwiz-snapheb-Normal-R-Normal--10-100-75-75-P-64-ISO10646-1
SIZE 10 75 75
FONTBOUNDINGBOX 7 10 0 -2
COMMENT "Generated by fontforge, http://fontforge.sourceforge.net"
STARTPROPERTIES 28
FONT_NAME "snaphebnormal"
FONT_ASCENT 8
FONT_DESCENT 2
DEFAULT_CHAR 0
UNDERLINE_POSITION 50
UNDERLINE_THICKNESS 50
QUAD_WIDTH 10
X_HEIGHT 4
CAP_HEIGHT 5
FONTNAME_REGISTRY ""
FAMILY_NAME "snapheb"
FOUNDRY "artwiz"
WEIGHT_NAME "Normal"
SETWIDTH_NAME "Normal"
SLANT "R"
ADD_STYLE_NAME ""
PIXEL_SIZE 10
POINT_SIZE 100
RESOLUTION_X 75
RESOLUTION_Y 75
RESOLUTION 75
SPACING "P"
AVERAGE_WIDTH 64
CHARSET_REGISTRY "ISO10646"
CHARSET_ENCODING "-1"
CHARSET_COLLECTIONS "ASCII ISO8859-5 ISO8859-8 ISO10646-1"
FULL_NAME "snapheb normal"
COPYRIGHT "Copyright artwiz, fixed by aLEczapKA, .se layout by vendis, 8859-15 completed by rasher"
ENDPROPERTIES
CHARS 285
STARTCHAR DefaultChar
ENCODING 0
DWIDTH 7 0
BBX 5 7 1 0
BITMAP
A8
00
88
00
88
00
A8
ENDCHAR
STARTCHAR char32
ENCODING 32
SWIDTH 200 0
DWIDTH 2 0
BBX 2 1 4 3
BITMAP
00
ENDCHAR
STARTCHAR uni0021
ENCODING 33
SWIDTH 288 0
DWIDTH 3 0
BBX 1 7 1 0
BITMAP
80
80
80
80
80
00
80
ENDCHAR
STARTCHAR uni0022
ENCODING 34
SWIDTH 480 0
DWIDTH 5 0
BBX 3 3 1 4
BITMAP
A0
A0
A0
ENDCHAR
STARTCHAR uni0023
ENCODING 35
SWIDTH 672 0
DWIDTH 7 0
BBX 5 5 1 1
BITMAP
50
F8
50
F8
50
ENDCHAR
STARTCHAR uni0024
ENCODING 36
SWIDTH 672 0
DWIDTH 7 0
BBX 5 8 1 -1
BITMAP
20
F8
A0
F8
28
28
F8
20
ENDCHAR
STARTCHAR uni0025
ENCODING 37
SWIDTH 768 0
DWIDTH 8 0
BBX 6 6 1 0
BITMAP
44
A8
50
28
54
88
ENDCHAR
STARTCHAR uni0026
ENCODING 38
SWIDTH 768 0
DWIDTH 8 0
BBX 6 6 1 0
BITMAP
60
90
64
98
88
74
ENDCHAR
STARTCHAR uni0027
ENCODING 39
SWIDTH 384 0
DWIDTH 4 0
BBX 2 3 1 4
BITMAP
40
40
80
ENDCHAR
STARTCHAR uni0028
ENCODING 40
SWIDTH 480 0
DWIDTH 5 0
BBX 3 10 1 -2
BITMAP
20
40
80
80
80
80
80
80
40
20
ENDCHAR
STARTCHAR uni0029
ENCODING 41
SWIDTH 480 0
DWIDTH 5 0
BBX 3 10 1 -2
BITMAP
80
40
20
20
20
20
20
20
40
80
ENDCHAR
STARTCHAR uni002A
ENCODING 42
SWIDTH 480 0
DWIDTH 5 0
BBX 5 3 0 4
BITMAP
D8
20
D8
ENDCHAR
STARTCHAR uni002B
ENCODING 43
SWIDTH 672 0
DWIDTH 7 0
BBX 5 5 1 1
BITMAP
20
20
F8
20
20
ENDCHAR
STARTCHAR uni002C
ENCODING 44
SWIDTH 384 0
DWIDTH 4 0
BBX 2 4 1 -2
BITMAP
40
40
40
80
ENDCHAR
STARTCHAR uni002D
ENCODING 45
SWIDTH 576 0
DWIDTH 6 0
BBX 4 1 1 3
BITMAP
F0
ENDCHAR
STARTCHAR uni002E
ENCODING 46
SWIDTH 288 0
DWIDTH 3 0
BBX 1 1 1 0
BITMAP
80
ENDCHAR
STARTCHAR uni002F
ENCODING 47
SWIDTH 576 0
DWIDTH 6 0
BBX 4 8 1 -1
BITMAP
10
10
20
20
40
40
80
80
ENDCHAR
STARTCHAR uni0030
ENCODING 48
SWIDTH 672 0
DWIDTH 7 0
BBX 5 6 1 0
BITMAP
F8
88
88
88
88
F8
ENDCHAR
STARTCHAR uni0031
ENCODING 49
SWIDTH 700 0
DWIDTH 7 0
BBX 2 6 2 0
BITMAP
C0
40
40
40
40
40
ENDCHAR
STARTCHAR uni0032
ENCODING 50
SWIDTH 672 0
DWIDTH 7 0
BBX 5 6 1 0
BITMAP
F8
08
F8
80
80
F8
ENDCHAR
STARTCHAR uni0033
ENCODING 51
SWIDTH 672 0
DWIDTH 7 0
BBX 5 6 1 0
BITMAP
F8
08
F8
08
08
F8
ENDCHAR
STARTCHAR uni0034
ENCODING 52
SWIDTH 672 0
DWIDTH 7 0
BBX 5 6 1 0
BITMAP
88
88
F8
08
08
08
ENDCHAR
STARTCHAR uni0035
ENCODING 53
SWIDTH 672 0
DWIDTH 7 0
BBX 5 6 1 0
BITMAP
F8
80
F8
08
08
F8
ENDCHAR
STARTCHAR uni0036
ENCODING 54
SWIDTH 672 0
DWIDTH 7 0
BBX 5 6 1 0
BITMAP
F8
80
F8
88
88
F8
ENDCHAR
STARTCHAR uni0037
ENCODING 55
SWIDTH 700 0
DWIDTH 7 0
BBX 5 6 1 0
BITMAP
F8
08
08
08
08
08
ENDCHAR
STARTCHAR uni0038
ENCODING 56
SWIDTH 672 0
DWIDTH 7 0
BBX 5 6 1 0
BITMAP
F8
88
F8
88
88
F8
ENDCHAR
STARTCHAR uni0039
ENCODING 57
SWIDTH 672 0
DWIDTH 7 0
BBX 5 6 1 0
BITMAP
F8
88
F8
08
08
08
ENDCHAR
STARTCHAR uni003A
ENCODING 58
SWIDTH 288 0
DWIDTH 3 0
BBX 1 6 1 0
BITMAP
80
80
00
00
80
80
ENDCHAR
STARTCHAR uni003B
ENCODING 59
SWIDTH 384 0
DWIDTH 4 0
BBX 2 7 1 -1
BITMAP
40
40
00
00
40
40
80
ENDCHAR
STARTCHAR uni003C
ENCODING 60
SWIDTH 576 0
DWIDTH 6 0
BBX 4 7 1 0
BITMAP
10
20
40
80
40
20
10
ENDCHAR
STARTCHAR uni003D
ENCODING 61
SWIDTH 672 0
DWIDTH 7 0
BBX 5 3 1 2
BITMAP
F8
00
F8
ENDCHAR
STARTCHAR uni003E
ENCODING 62
SWIDTH 576 0
DWIDTH 6 0
BBX 4 7 1 0
BITMAP
80
40
20
10
20
40
80
ENDCHAR
STARTCHAR uni003F
ENCODING 63
SWIDTH 576 0
DWIDTH 6 0
BBX 4 6 1 0
BITMAP
F0
10
70
40
00
40
ENDCHAR
STARTCHAR uni0040
ENCODING 64
SWIDTH 672 0
DWIDTH 7 0
BBX 5 6 1 0
BITMAP
F8
88
A8
B8
80
F8
ENDCHAR
STARTCHAR uni0041
ENCODING 65
SWIDTH 672 0
DWIDTH 7 0
BBX 5 6 1 0
BITMAP
F8
88
F8
88
88
88
ENDCHAR
STARTCHAR uni0042
ENCODING 66
SWIDTH 672 0
DWIDTH 7 0
BBX 5 6 1 0
BITMAP
F8
88
F0
88
88
F8
ENDCHAR
STARTCHAR uni0043
ENCODING 67
SWIDTH 672 0
DWIDTH 7 0
BBX 5 6 1 0
BITMAP
F8
80
80
80
80
F8
ENDCHAR
STARTCHAR uni0044
ENCODING 68
SWIDTH 672 0
DWIDTH 7 0
BBX 5 6 1 0
BITMAP
F0
88
88
88
88
F0
ENDCHAR
STARTCHAR uni0045
ENCODING 69
SWIDTH 576 0
DWIDTH 6 0
BBX 4 6 1 0
BITMAP
F0
80
F0
80
80
F0
ENDCHAR
STARTCHAR uni0046
ENCODING 70
SWIDTH 576 0
DWIDTH 6 0
BBX 4 6 1 0
BITMAP
F0
80
F0
80
80
80
ENDCHAR
STARTCHAR uni0047
ENCODING 71
SWIDTH 672 0
DWIDTH 7 0
BBX 5 6 1 0
BITMAP
F8
80
B8
88
88
F8
ENDCHAR
STARTCHAR uni0048
ENCODING 72
SWIDTH 672 0
DWIDTH 7 0
BBX 5 6 1 0
BITMAP
88
88
F8
88
88
88
ENDCHAR
STARTCHAR uni0049
ENCODING 73
SWIDTH 288 0
DWIDTH 3 0
BBX 1 6 1 0
BITMAP
80
80
80
80
80
80
ENDCHAR
STARTCHAR uni004A
ENCODING 74
SWIDTH 480 0
DWIDTH 5 0
BBX 3 7 1 -1
BITMAP
20
20
20
20
20
20
E0
ENDCHAR
STARTCHAR uni004B
ENCODING 75
SWIDTH 672 0
DWIDTH 7 0
BBX 5 6 1 0
BITMAP
88
90
E0
90
88
88
ENDCHAR
STARTCHAR uni004C
ENCODING 76
SWIDTH 576 0
DWIDTH 6 0
BBX 4 6 1 0
BITMAP
80
80
80
80
80
F0
ENDCHAR
STARTCHAR uni004D
ENCODING 77
SWIDTH 864 0
DWIDTH 9 0
BBX 7 6 1 0
BITMAP
FE
92
92
92
92
92
ENDCHAR
STARTCHAR uni004E
ENCODING 78
SWIDTH 672 0
DWIDTH 7 0
BBX 5 6 1 0
BITMAP
F8
88
88
88
88
88
ENDCHAR
STARTCHAR uni004F
ENCODING 79
SWIDTH 672 0
DWIDTH 7 0
BBX 5 6 1 0
BITMAP
F8
88
88
88
88
F8
ENDCHAR
STARTCHAR uni0050
ENCODING 80
SWIDTH 672 0
DWIDTH 7 0
BBX 5 6 1 0
BITMAP
F8
88
F8
80
80
80
ENDCHAR
STARTCHAR uni0051
ENCODING 81
SWIDTH 672 0
DWIDTH 7 0
BBX 6 7 1 -1
BITMAP
F8
88
88
88
88
F8
0C
ENDCHAR
STARTCHAR uni0052
ENCODING 82
SWIDTH 672 0
DWIDTH 7 0
BBX 5 6 1 0
BITMAP
F8
88
F8
90
88
88
ENDCHAR
STARTCHAR uni0053
ENCODING 83
SWIDTH 672 0
DWIDTH 7 0
BBX 5 6 1 0
BITMAP
F8
80
F8
08
08
F8
ENDCHAR
STARTCHAR uni0054
ENCODING 84
SWIDTH 672 0
DWIDTH 7 0
BBX 5 6 1 0
BITMAP
F8
20
20
20
20
20
ENDCHAR
STARTCHAR uni0055
ENCODING 85
SWIDTH 672 0
DWIDTH 7 0
BBX 5 6 1 0
BITMAP
88
88
88
88
88
F8
ENDCHAR
STARTCHAR uni0056
ENCODING 86
SWIDTH 672 0
DWIDTH 7 0
BBX 5 6 1 0
BITMAP
88
88
88
88
50
20
ENDCHAR
STARTCHAR uni0057
ENCODING 87
SWIDTH 864 0
DWIDTH 9 0
BBX 7 6 1 0
BITMAP
92
92
92
92
92
FE
ENDCHAR
STARTCHAR uni0058
ENCODING 88
SWIDTH 672 0
DWIDTH 7 0
BBX 5 6 1 0
BITMAP
88
50
20
50
88
88
ENDCHAR
STARTCHAR uni0059
ENCODING 89
SWIDTH 672 0
DWIDTH 7 0
BBX 5 7 1 0
BITMAP
88
88
F8
20
20
20
20
ENDCHAR
STARTCHAR uni005A
ENCODING 90
SWIDTH 672 0
DWIDTH 7 0
BBX 5 6 1 0
BITMAP
F8
10
20
40
80
F8
ENDCHAR
STARTCHAR uni005B
ENCODING 91
SWIDTH 480 0
DWIDTH 5 0
BBX 3 10 1 -2
BITMAP
E0
80
80
80
80
80
80
80
80
E0
ENDCHAR
STARTCHAR uni005C
ENCODING 92
SWIDTH 576 0
DWIDTH 6 0
BBX 4 8 1 -1
BITMAP
80
80
40
40
20
20
10
10
ENDCHAR
STARTCHAR uni005D
ENCODING 93
SWIDTH 480 0
DWIDTH 5 0
BBX 3 10 1 -2
BITMAP
E0
20
20
20
20
20
20
20
20
E0
ENDCHAR
STARTCHAR uni005E
ENCODING 94
SWIDTH 672 0
DWIDTH 7 0
BBX 5 3 1 4
BITMAP
20
50
88
ENDCHAR
STARTCHAR uni005F
ENCODING 95
SWIDTH 768 0
DWIDTH 8 0
BBX 6 1 1 -1
BITMAP
FC
ENDCHAR
STARTCHAR uni0060
ENCODING 96
SWIDTH 384 0
DWIDTH 4 0
BBX 2 3 1 4
BITMAP
80
80
40
ENDCHAR
STARTCHAR uni0061
ENCODING 97
SWIDTH 672 0
DWIDTH 7 0
BBX 5 5 1 0
BITMAP
F8
08
F8
88
F8
ENDCHAR
STARTCHAR uni0062
ENCODING 98
SWIDTH 672 0
DWIDTH 7 0
BBX 5 7 1 0
BITMAP
80
80
F8
88
88
88
F8
ENDCHAR
STARTCHAR uni0063
ENCODING 99
SWIDTH 672 0
DWIDTH 7 0
BBX 5 5 1 0
BITMAP
F8
80
80
80
F8
ENDCHAR
STARTCHAR uni0064
ENCODING 100
SWIDTH 672 0
DWIDTH 7 0
BBX 5 7 1 0
BITMAP
08
08
F8
88
88
88
F8
ENDCHAR
STARTCHAR uni0065
ENCODING 101
SWIDTH 672 0
DWIDTH 7 0
BBX 5 5 1 0
BITMAP
F8
88
F8
80
F8
ENDCHAR
STARTCHAR uni0066
ENCODING 102
SWIDTH 480 0
DWIDTH 5 0
BBX 4 7 0 0
BITMAP
70
40
F0
40
40
40
40
ENDCHAR
STARTCHAR uni0067
ENCODING 103
SWIDTH 672 0
DWIDTH 7 0
BBX 5 7 1 -2
BITMAP
F8
88
88
88
F8
08
F8
ENDCHAR
STARTCHAR uni0068
ENCODING 104
SWIDTH 672 0
DWIDTH 7 0
BBX 5 7 1 0
BITMAP
80
80
F8
88
88
88
88
ENDCHAR
STARTCHAR uni0069
ENCODING 105
SWIDTH 288 0
DWIDTH 3 0
BBX 1 7 1 0
BITMAP
80
00
80
80
80
80
80
ENDCHAR
STARTCHAR uni006A
ENCODING 106
SWIDTH 384 0
DWIDTH 4 0
BBX 3 9 0 -2
BITMAP
20
00
20
20
20
20
20
20
E0
ENDCHAR
STARTCHAR uni006B
ENCODING 107
SWIDTH 672 0
DWIDTH 7 0
BBX 5 7 1 0
BITMAP
80
80
88
90
E0
90
88
ENDCHAR
STARTCHAR uni006C
ENCODING 108
SWIDTH 288 0
DWIDTH 3 0
BBX 1 7 1 0
BITMAP
80
80
80
80
80
80
80
ENDCHAR
STARTCHAR uni006D
ENCODING 109
SWIDTH 864 0
DWIDTH 9 0
BBX 7 5 1 0
BITMAP
FE
92
92
92
92
ENDCHAR
STARTCHAR uni006E
ENCODING 110
SWIDTH 672 0
DWIDTH 7 0
BBX 5 5 1 0
BITMAP
F8
88
88
88
88
ENDCHAR
STARTCHAR uni006F
ENCODING 111
SWIDTH 672 0
DWIDTH 7 0
BBX 5 5 1 0
BITMAP
F8
88
88
88
F8
ENDCHAR
STARTCHAR uni0070
ENCODING 112
SWIDTH 672 0
DWIDTH 7 0
BBX 5 7 1 -2
BITMAP
F8
88
88
88
F8
80
80
ENDCHAR
STARTCHAR uni0071
ENCODING 113
SWIDTH 672 0
DWIDTH 7 0
BBX 5 7 1 -2
BITMAP
F8
88
88
88
F8
08
08
ENDCHAR
STARTCHAR uni0072
ENCODING 114
SWIDTH 480 0
DWIDTH 5 0
BBX 4 5 1 0
BITMAP
F0
80
80
80
80
ENDCHAR
STARTCHAR uni0073
ENCODING 115
SWIDTH 672 0
DWIDTH 7 0
BBX 5 5 1 0
BITMAP
F8
80
F8
08
F8
ENDCHAR
STARTCHAR uni0074
ENCODING 116
SWIDTH 480 0
DWIDTH 5 0
BBX 3 6 1 0
BITMAP
40
E0
40
40
40
40
ENDCHAR
STARTCHAR uni0075
ENCODING 117
SWIDTH 672 0
DWIDTH 7 0
BBX 5 5 1 0
BITMAP
88
88
88
88
F8
ENDCHAR
STARTCHAR uni0076
ENCODING 118
SWIDTH 672 0
DWIDTH 7 0
BBX 5 5 1 0
BITMAP
88
88
88
50
20
ENDCHAR
STARTCHAR uni0077
ENCODING 119
SWIDTH 864 0
DWIDTH 9 0
BBX 7 5 1 0
BITMAP
92
92
92
92
FE
ENDCHAR
STARTCHAR uni0078
ENCODING 120
SWIDTH 672 0
DWIDTH 7 0
BBX 5 5 1 0
BITMAP
88
50
20
50
88
ENDCHAR
STARTCHAR uni0079
ENCODING 121
SWIDTH 672 0
DWIDTH 7 0
BBX 5 7 1 -2
BITMAP
88
88
88
88
F8
08
F8
ENDCHAR
STARTCHAR uni007A
ENCODING 122
SWIDTH 672 0
DWIDTH 7 0
BBX 5 5 1 0
BITMAP
F8
10
20
40
F8
ENDCHAR
STARTCHAR uni007B
ENCODING 123
SWIDTH 576 0
DWIDTH 6 0
BBX 4 10 1 -2
BITMAP
70
40
40
40
C0
40
40
40
40
70
ENDCHAR
STARTCHAR uni007C
ENCODING 124
SWIDTH 288 0
DWIDTH 3 0
BBX 1 9 1 -1
BITMAP
80
80
80
80
80
80
80
80
80
ENDCHAR
STARTCHAR uni007D
ENCODING 125
SWIDTH 576 0
DWIDTH 6 0
BBX 4 10 1 -2
BITMAP
E0
20
20
20
30
20
20
20
20
E0
ENDCHAR
STARTCHAR uni007E
ENCODING 126
SWIDTH 672 0
DWIDTH 7 0
BBX 5 2 1 4
BITMAP
E8
B8
ENDCHAR
STARTCHAR uni00A1
ENCODING 161
SWIDTH 288 0
DWIDTH 3 0
BBX 1 7 1 0
BITMAP
80
00
80
80
80
80
80
ENDCHAR
STARTCHAR uni00A2
ENCODING 162
SWIDTH 672 0
DWIDTH 7 0
BBX 5 7 1 -1
BITMAP
20
F8
A0
A0
A0
F8
20
ENDCHAR
STARTCHAR uni00A3
ENCODING 163
SWIDTH 672 0
DWIDTH 7 0
BBX 5 6 1 0
BITMAP
78
40
E0
40
40
F8
ENDCHAR
STARTCHAR uni00A4
ENCODING 164
SWIDTH 768 0
DWIDTH 8 0
BBX 6 7 1 0
BITMAP
7C
40
F0
40
F0
40
7C
ENDCHAR
STARTCHAR uni00A5
ENCODING 165
SWIDTH 672 0
DWIDTH 7 0
BBX 5 7 1 0
BITMAP
88
88
F8
20
70
20
20
ENDCHAR
STARTCHAR uni00A6
ENCODING 166
SWIDTH 672 0
DWIDTH 7 0
BBX 5 8 1 0
BITMAP
50
20
F8
80
F8
08
08
F8
ENDCHAR
STARTCHAR uni00A7
ENCODING 167
SWIDTH 672 0
DWIDTH 7 0
BBX 5 7 1 0
BITMAP
F8
80
F8
88
F8
08
F8
ENDCHAR
STARTCHAR uni00A8
ENCODING 168
SWIDTH 672 0
DWIDTH 7 0
BBX 5 8 1 0
BITMAP
50
20
00
F8
80
F8
08
F8
ENDCHAR
STARTCHAR uni00A9
ENCODING 169
SWIDTH 768 0
DWIDTH 8 0
BBX 6 7 1 0
BITMAP
FC
84
B4
A4
B4
84
FC
ENDCHAR
STARTCHAR uni00AA
ENCODING 170
SWIDTH 672 0
DWIDTH 7 0
BBX 5 7 1 1
BITMAP
F8
08
F8
88
F8
00
F8
ENDCHAR
STARTCHAR uni00AB
ENCODING 171
SWIDTH 768 0
DWIDTH 8 0
BBX 7 7 0 0
BITMAP
12
24
48
90
48
24
12
ENDCHAR
STARTCHAR uni00AC
ENCODING 172
SWIDTH 672 0
DWIDTH 7 0
BBX 5 3 1 0
BITMAP
F8
08
08
ENDCHAR
STARTCHAR uni00AD
ENCODING 173
SWIDTH 672 0
DWIDTH 7 0
BBX 5 1 1 3
BITMAP
F8
ENDCHAR
STARTCHAR uni00AE
ENCODING 174
SWIDTH 768 0
DWIDTH 8 0
BBX 6 7 1 0
BITMAP
FC
84
B4
A4
A4
84
FC
ENDCHAR
STARTCHAR uni00AF
ENCODING 175
SWIDTH 672 0
DWIDTH 7 0
BBX 5 1 1 5
BITMAP
F8
ENDCHAR
STARTCHAR uni00B0
ENCODING 176
SWIDTH 480 0
DWIDTH 5 0
BBX 3 3 1 4
BITMAP
E0
A0
E0
ENDCHAR
STARTCHAR uni00B1
ENCODING 177
SWIDTH 672 0
DWIDTH 7 0
BBX 5 7 1 1
BITMAP
20
20
F8
20
20
00
F8
ENDCHAR
STARTCHAR uni00B2
ENCODING 178
SWIDTH 576 0
DWIDTH 6 0
BBX 4 5 1 2
BITMAP
F0
10
F0
80
F0
ENDCHAR
STARTCHAR uni00B3
ENCODING 179
SWIDTH 576 0
DWIDTH 6 0
BBX 4 5 1 2
BITMAP
F0
10
F0
10
F0
ENDCHAR
STARTCHAR uni00B4
ENCODING 180
SWIDTH 672 0
DWIDTH 7 0
BBX 5 8 1 0
BITMAP
50
20
F8
10
20
40
80
F8
ENDCHAR
STARTCHAR uni00B5
ENCODING 181
SWIDTH 576 0
DWIDTH 6 0
BBX 4 5 1 -1
BITMAP
90
90
90
F0
80
ENDCHAR
STARTCHAR uni00B6
ENCODING 182
SWIDTH 576 0
DWIDTH 6 0
BBX 4 7 1 0
BITMAP
F0
D0
D0
D0
50
50
70
ENDCHAR
STARTCHAR uni00B7
ENCODING 183
SWIDTH 384 0
DWIDTH 4 0
BBX 2 1 1 3
BITMAP
C0
ENDCHAR
STARTCHAR uni00B8
ENCODING 184
SWIDTH 672 0
DWIDTH 7 0
BBX 5 7 1 0
BITMAP
50
20
F8
10
20
40
F8
ENDCHAR
STARTCHAR uni00B9
ENCODING 185
SWIDTH 384 0
DWIDTH 4 0
BBX 2 4 1 3
BITMAP
C0
40
40
40
ENDCHAR
STARTCHAR uni00BA
ENCODING 186
SWIDTH 480 0
DWIDTH 5 0
BBX 3 5 1 2
BITMAP
E0
A0
E0
00
E0
ENDCHAR
STARTCHAR uni00BB
ENCODING 187
SWIDTH 768 0
DWIDTH 8 0
BBX 7 7 1 0
BITMAP
90
48
24
12
24
48
90
ENDCHAR
STARTCHAR uni00BC
ENCODING 188
SWIDTH 864 0
DWIDTH 9 0
BBX 7 6 1 0
BITMAP
FE
90
9E
90
90
FE
ENDCHAR
STARTCHAR uni00BD
ENCODING 189
SWIDTH 864 0
DWIDTH 9 0
BBX 7 5 1 0
BITMAP
FE
92
9E
90
FE
ENDCHAR
STARTCHAR uni00BE
ENCODING 190
SWIDTH 672 0
DWIDTH 7 0
BBX 5 8 1 0
BITMAP
50
00
88
88
F8
20
20
20
ENDCHAR
STARTCHAR uni00BF
ENCODING 191
SWIDTH 576 0
DWIDTH 6 0
BBX 4 6 1 0
BITMAP
20
00
20
E0
80
F0
ENDCHAR
STARTCHAR uni00C0
ENCODING 192
SWIDTH 672 0
DWIDTH 7 0
BBX 5 8 1 0
BITMAP
40
20
00
F8
88
F8
88
88
ENDCHAR
STARTCHAR uni00C1
ENCODING 193
SWIDTH 672 0
DWIDTH 7 0
BBX 5 8 1 0
BITMAP
10
20
00
F8
88
F8
88
88
ENDCHAR
STARTCHAR uni00C2
ENCODING 194
SWIDTH 672 0
DWIDTH 7 0
BBX 5 8 1 0
BITMAP
20
50
00
F8
88
F8
88
88
ENDCHAR
STARTCHAR uni00C3
ENCODING 195
SWIDTH 672 0
DWIDTH 7 0
BBX 5 8 1 0
BITMAP
E8
B8
00
F8
88
F8
88
88
ENDCHAR
STARTCHAR uni00C4
ENCODING 196
SWIDTH 672 0
DWIDTH 7 0
BBX 5 8 1 0
BITMAP
50
00
F8
88
F8
88
88
88
ENDCHAR
STARTCHAR uni00C5
ENCODING 197
SWIDTH 672 0
DWIDTH 7 0
BBX 5 8 1 0
BITMAP
20
00
F8
88
F8
88
88
88
ENDCHAR
STARTCHAR uni00C6
ENCODING 198
SWIDTH 864 0
DWIDTH 9 0
BBX 7 6 1 0
BITMAP
FE
90
FE
90
90
9E
ENDCHAR
STARTCHAR uni00C7
ENCODING 199
SWIDTH 672 0
DWIDTH 7 0
BBX 5 8 1 -2
BITMAP
F8
80
80
80
80
F8
20
60
ENDCHAR
STARTCHAR uni00C8
ENCODING 200
SWIDTH 576 0
DWIDTH 6 0
BBX 4 8 1 0
BITMAP
40
20
F0
80
F0
80
80
F0
ENDCHAR
STARTCHAR uni00C9
ENCODING 201
SWIDTH 576 0
DWIDTH 6 0
BBX 4 8 1 0
BITMAP
20
40
F0
80
F0
80
80
F0
ENDCHAR
STARTCHAR uni00CA
ENCODING 202
SWIDTH 576 0
DWIDTH 6 0
BBX 5 8 0 0
BITMAP
E8
B8
00
78
40
78
40
78
ENDCHAR
STARTCHAR uni00CB
ENCODING 203
SWIDTH 576 0
DWIDTH 6 0
BBX 4 8 1 0
BITMAP
50
00
F0
80
F0
80
80
F0
ENDCHAR
STARTCHAR uni00CC
ENCODING 204
SWIDTH 400 0
DWIDTH 4 0
BBX 2 8 1 0
BITMAP
80
40
80
80
80
80
80
80
ENDCHAR
STARTCHAR uni00CD
ENCODING 205
SWIDTH 400 0
DWIDTH 4 0
BBX 2 8 1 0
BITMAP
40
80
40
40
40
40
40
40
ENDCHAR
STARTCHAR uni00CE
ENCODING 206
SWIDTH 500 0
DWIDTH 5 0
BBX 3 8 1 0
BITMAP
40
A0
40
40
40
40
40
40
ENDCHAR
STARTCHAR uni00CF
ENCODING 207
SWIDTH 500 0
DWIDTH 5 0
BBX 3 8 1 0
BITMAP
A0
00
40
40
40
40
40
40
ENDCHAR
STARTCHAR uni00D0
ENCODING 208
SWIDTH 672 0
DWIDTH 7 0
BBX 6 6 0 0
BITMAP
78
44
44
E4
44
78
ENDCHAR
STARTCHAR uni00D1
ENCODING 209
SWIDTH 672 0
DWIDTH 7 0
BBX 5 8 1 0
BITMAP
E8
B8
00
F8
88
88
88
88
ENDCHAR
STARTCHAR uni00D2
ENCODING 210
SWIDTH 672 0
DWIDTH 7 0
BBX 5 8 1 0
BITMAP
40
20
F8
88
88
88
88
F8
ENDCHAR
STARTCHAR uni00D3
ENCODING 211
SWIDTH 672 0
DWIDTH 7 0
BBX 5 8 1 0
BITMAP
10
20
F8
88
88
88
88
F8
ENDCHAR
STARTCHAR uni00D4
ENCODING 212
SWIDTH 672 0
DWIDTH 7 0
BBX 5 8 1 0
BITMAP
20
50
00
F8
88
88
88
F8
ENDCHAR
STARTCHAR uni00D5
ENCODING 213
SWIDTH 672 0
DWIDTH 7 0
BBX 5 8 1 0
BITMAP
E8
B8
00
F8
88
88
88
F8
ENDCHAR
STARTCHAR uni00D6
ENCODING 214
SWIDTH 672 0
DWIDTH 7 0
BBX 5 8 1 0
BITMAP
50
00
F8
88
88
88
88
F8
ENDCHAR
STARTCHAR uni00D7
ENCODING 215
SWIDTH 480 0
DWIDTH 5 0
BBX 3 3 1 2
BITMAP
A0
40
A0
ENDCHAR
STARTCHAR uni00D8
ENCODING 216
SWIDTH 672 0
DWIDTH 7 0
BBX 5 8 1 -1
BITMAP
10
F8
A8
A8
A8
A8
F8
40
ENDCHAR
STARTCHAR uni00D9
ENCODING 217
SWIDTH 672 0
DWIDTH 7 0
BBX 5 8 1 0
BITMAP
40
20
88
88
88
88
88
F8
ENDCHAR
STARTCHAR uni00DA
ENCODING 218
SWIDTH 672 0
DWIDTH 7 0
BBX 5 8 1 0
BITMAP
10
20
88
88
88
88
88
F8
ENDCHAR
STARTCHAR uni00DB
ENCODING 219
SWIDTH 672 0
DWIDTH 7 0
BBX 5 8 1 0
BITMAP
20
50
00
88
88
88
88
F8
ENDCHAR
STARTCHAR uni00DC
ENCODING 220
SWIDTH 672 0
DWIDTH 7 0
BBX 5 8 1 0
BITMAP
50
00
88
88
88
88
88
F8
ENDCHAR
STARTCHAR uni00DD
ENCODING 221
SWIDTH 672 0
DWIDTH 7 0
BBX 5 8 1 0
BITMAP
10
20
88
88
F8
20
20
20
ENDCHAR
STARTCHAR uni00DE
ENCODING 222
SWIDTH 576 0
DWIDTH 6 0
BBX 4 7 1 0
BITMAP
80
80
F0
90
F0
80
80
ENDCHAR
STARTCHAR uni00DF
ENCODING 223
SWIDTH 576 0
DWIDTH 6 0
BBX 4 8 1 -1
BITMAP
F0
90
90
F0
90
90
F0
80
ENDCHAR
STARTCHAR uni00E0
ENCODING 224
SWIDTH 672 0
DWIDTH 7 0
BBX 5 8 1 0
BITMAP
40
20
00
F8
08
F8
88
F8
ENDCHAR
STARTCHAR uni00E1
ENCODING 225
SWIDTH 672 0
DWIDTH 7 0
BBX 5 8 1 0
BITMAP
10
20
00
F8
08
F8
88
F8
ENDCHAR
STARTCHAR uni00E2
ENCODING 226
SWIDTH 672 0
DWIDTH 7 0
BBX 5 8 1 0
BITMAP
20
50
00
F8
08
F8
88
F8
ENDCHAR
STARTCHAR uni00E3
ENCODING 227
SWIDTH 672 0
DWIDTH 7 0
BBX 5 8 1 0
BITMAP
E8
B8
00
F8
08
F8
88
F8
ENDCHAR
STARTCHAR uni00E4
ENCODING 228
SWIDTH 672 0
DWIDTH 7 0
BBX 5 7 1 0
BITMAP
50
00
F8
08
F8
88
F8
ENDCHAR
STARTCHAR uni00E5
ENCODING 229
SWIDTH 672 0
DWIDTH 7 0
BBX 5 7 1 0
BITMAP
20
00
F8
08
F8
88
F8
ENDCHAR
STARTCHAR uni00E6
ENCODING 230
SWIDTH 864 0
DWIDTH 9 0
BBX 7 5 1 0
BITMAP
FE
92
FE
90
9E
ENDCHAR
STARTCHAR uni00E7
ENCODING 231
SWIDTH 672 0
DWIDTH 7 0
BBX 5 7 1 -2
BITMAP
F8
80
80
80
F8
20
60
ENDCHAR
STARTCHAR uni00E8
ENCODING 232
SWIDTH 672 0
DWIDTH 7 0
BBX 5 8 1 0
BITMAP
40
20
00
F8
88
F8
80
F8
ENDCHAR
STARTCHAR uni00E9
ENCODING 233
SWIDTH 672 0
DWIDTH 7 0
BBX 5 8 1 0
BITMAP
10
20
00
F8
88
F8
80
F8
ENDCHAR
STARTCHAR uni00EA
ENCODING 234
SWIDTH 672 0
DWIDTH 7 0
BBX 5 8 1 0
BITMAP
20
50
00
F8
88
F8
80
F8
ENDCHAR
STARTCHAR uni00EB
ENCODING 235
SWIDTH 672 0
DWIDTH 7 0
BBX 5 7 1 0
BITMAP
50
00
F8
88
F8
80
F8
ENDCHAR
STARTCHAR uni00EC
ENCODING 236
SWIDTH 288 0
DWIDTH 3 0
BBX 2 8 0 0
BITMAP
80
40
00
40
40
40
40
40
ENDCHAR
STARTCHAR uni00ED
ENCODING 237
SWIDTH 288 0
DWIDTH 3 0
BBX 2 8 1 0
BITMAP
40
80
00
80
80
80
80
80
ENDCHAR
STARTCHAR uni00EE
ENCODING 238
SWIDTH 288 0
DWIDTH 3 0
BBX 3 8 0 0
BITMAP
40
A0
00
40
40
40
40
40
ENDCHAR
STARTCHAR uni00EF
ENCODING 239
SWIDTH 288 0
DWIDTH 3 0
BBX 3 7 0 0
BITMAP
A0
00
40
40
40
40
40
ENDCHAR
STARTCHAR uni00F0
ENCODING 240
SWIDTH 672 0
DWIDTH 7 0
BBX 5 8 1 0
BITMAP
48
30
48
08
F8
88
88
F8
ENDCHAR
STARTCHAR uni00F1
ENCODING 241
SWIDTH 672 0
DWIDTH 7 0
BBX 5 8 1 0
BITMAP
E8
B8
00
F8
88
88
88
88
ENDCHAR
STARTCHAR uni00F2
ENCODING 242
SWIDTH 672 0
DWIDTH 7 0
BBX 5 8 1 0
BITMAP
40
20
00
F8
88
88
88
F8
ENDCHAR
STARTCHAR uni00F3
ENCODING 243
SWIDTH 672 0
DWIDTH 7 0
BBX 5 8 1 0
BITMAP
10
20
00
F8
88
88
88
F8
ENDCHAR
STARTCHAR uni00F4
ENCODING 244
SWIDTH 672 0
DWIDTH 7 0
BBX 5 8 1 0
BITMAP
20
50
00
F8
88
88
88
F8
ENDCHAR
STARTCHAR uni00F5
ENCODING 245
SWIDTH 672 0
DWIDTH 7 0
BBX 5 8 1 0
BITMAP
E8
B8
00
F8
88
88
88
F8
ENDCHAR
STARTCHAR uni00F6
ENCODING 246
SWIDTH 672 0
DWIDTH 7 0
BBX 5 7 1 0
BITMAP
50
00
F8
88
88
88
F8
ENDCHAR
STARTCHAR uni00F7
ENCODING 247
SWIDTH 672 0
DWIDTH 7 0
BBX 5 5 1 1
BITMAP
20
00
F8
00
20
ENDCHAR
STARTCHAR uni00F8
ENCODING 248
SWIDTH 672 0
DWIDTH 7 0
BBX 5 7 1 -1
BITMAP
10
F8
A8
A8
A8
F8
40
ENDCHAR
STARTCHAR uni00F9
ENCODING 249
SWIDTH 672 0
DWIDTH 7 0
BBX 5 7 1 0
BITMAP
40
20
88
88
88
88
F8
ENDCHAR
STARTCHAR uni00FA
ENCODING 250
SWIDTH 672 0
DWIDTH 7 0
BBX 5 7 1 0
BITMAP
10
20
88
88
88
88
F8
ENDCHAR
STARTCHAR uni00FB
ENCODING 251
SWIDTH 672 0
DWIDTH 7 0
BBX 5 8 1 0
BITMAP
20
50
00
88
88
88
88
F8
ENDCHAR
STARTCHAR uni00FC
ENCODING 252
SWIDTH 672 0
DWIDTH 7 0
BBX 5 7 1 0
BITMAP
50
00
88
88
88
88
F8
ENDCHAR
STARTCHAR uni00FD
ENCODING 253
SWIDTH 672 0
DWIDTH 7 0
BBX 5 10 1 -2
BITMAP
10
20
00
88
88
88
88
F8
08
F8
ENDCHAR
STARTCHAR uni00FE
ENCODING 254
SWIDTH 672 0
DWIDTH 7 0
BBX 5 7 1 0
BITMAP
80
80
F8
88
F0
80
80
ENDCHAR
STARTCHAR uni00FF
ENCODING 255
SWIDTH 672 0
DWIDTH 7 0
BBX 5 9 1 -2
BITMAP
50
00
88
88
88
88
F8
08
F8
ENDCHAR
STARTCHAR char1025
ENCODING 1025
SWIDTH 576 0
DWIDTH 6 0
BBX 4 8 1 0
BITMAP
50
00
F0
80
F0
80
80
F0
ENDCHAR
STARTCHAR char1040
ENCODING 1040
SWIDTH 672 0
DWIDTH 7 0
BBX 5 6 1 0
BITMAP
F8
88
F8
88
88
88
ENDCHAR
STARTCHAR char1041
ENCODING 1041
SWIDTH 672 0
DWIDTH 7 0
BBX 5 6 1 0
BITMAP
F8
80
80
F8
88
F8
ENDCHAR
STARTCHAR char1042
ENCODING 1042
SWIDTH 672 0
DWIDTH 7 0
BBX 5 6 1 0
BITMAP
F8
88
F0
88
88
F8
ENDCHAR
STARTCHAR char1043
ENCODING 1043
SWIDTH 576 0
DWIDTH 6 0
BBX 4 6 1 0
BITMAP
F0
80
80
80
80
80
ENDCHAR
STARTCHAR char1044
ENCODING 1044
SWIDTH 864 0
DWIDTH 9 0
BBX 7 8 1 -2
BITMAP
7C
44
44
44
44
FE
82
82
ENDCHAR
STARTCHAR char1045
ENCODING 1045
SWIDTH 576 0
DWIDTH 6 0
BBX 4 6 1 0
BITMAP
F0
80
F0
80
80
F0
ENDCHAR
STARTCHAR char1046
ENCODING 1046
SWIDTH 672 0
DWIDTH 7 0
BBX 5 6 1 0
BITMAP
A8
A8
70
70
A8
A8
ENDCHAR
STARTCHAR char1047
ENCODING 1047
SWIDTH 672 0
DWIDTH 7 0
BBX 5 6 1 0
BITMAP
F8
08
38
08
08
F8
ENDCHAR
STARTCHAR char1048
ENCODING 1048
SWIDTH 768 0
DWIDTH 8 0
BBX 6 6 1 0
BITMAP
84
8C
94
A4
C4
84
ENDCHAR
STARTCHAR char1049
ENCODING 1049
SWIDTH 768 0
DWIDTH 8 0
BBX 6 7 1 0
BITMAP
30
84
8C
94
A4
C4
84
ENDCHAR
STARTCHAR char1050
ENCODING 1050
SWIDTH 672 0
DWIDTH 7 0
BBX 5 6 1 0
BITMAP
88
90
E0
90
88
88
ENDCHAR
STARTCHAR char1051
ENCODING 1051
SWIDTH 672 0
DWIDTH 7 0
BBX 5 6 1 0
BITMAP
38
48
88
88
88
88
ENDCHAR
STARTCHAR char1052
ENCODING 1052
SWIDTH 672 0
DWIDTH 7 0
BBX 5 6 1 0
BITMAP
88
D8
A8
88
88
88
ENDCHAR
STARTCHAR char1053
ENCODING 1053
SWIDTH 672 0
DWIDTH 7 0
BBX 5 6 1 0
BITMAP
88
88
F8
88
88
88
ENDCHAR
STARTCHAR char1054
ENCODING 1054
SWIDTH 672 0
DWIDTH 7 0
BBX 5 6 1 0
BITMAP
F8
88
88
88
88
F8
ENDCHAR
STARTCHAR char1055
ENCODING 1055
SWIDTH 672 0
DWIDTH 7 0
BBX 5 6 1 0
BITMAP
F8
88
88
88
88
88
ENDCHAR
STARTCHAR char1056
ENCODING 1056
SWIDTH 672 0
DWIDTH 7 0
BBX 5 6 1 0
BITMAP
F8
88
F8
80
80
80
ENDCHAR
STARTCHAR char1057
ENCODING 1057
SWIDTH 576 0
DWIDTH 6 0
BBX 4 6 1 0
BITMAP
F0
80
80
80
80
F0
ENDCHAR
STARTCHAR char1058
ENCODING 1058
SWIDTH 672 0
DWIDTH 7 0
BBX 5 6 1 0
BITMAP
F8
20
20
20
20
20
ENDCHAR
STARTCHAR char1059
ENCODING 1059
SWIDTH 672 0
DWIDTH 7 0
BBX 5 6 1 0
BITMAP
88
88
F8
08
08
F8
ENDCHAR
STARTCHAR char1060
ENCODING 1060
SWIDTH 672 0
DWIDTH 7 0
BBX 5 6 1 0
BITMAP
F8
A8
A8
F8
20
20
ENDCHAR
STARTCHAR char1061
ENCODING 1061
SWIDTH 672 0
DWIDTH 7 0
BBX 5 6 1 0
BITMAP
88
50
20
50
88
88
ENDCHAR
STARTCHAR char1062
ENCODING 1062
SWIDTH 672 0
DWIDTH 7 0
BBX 6 7 1 -1
BITMAP
88
88
88
88
88
FC
04
ENDCHAR
STARTCHAR char1063
ENCODING 1063
SWIDTH 672 0
DWIDTH 7 0
BBX 5 6 1 0
BITMAP
88
88
F8
08
08
08
ENDCHAR
STARTCHAR char1064
ENCODING 1064
SWIDTH 672 0
DWIDTH 7 0
BBX 5 6 1 0
BITMAP
88
88
88
A8
A8
F8
ENDCHAR
STARTCHAR char1065
ENCODING 1065
SWIDTH 672 0
DWIDTH 7 0
BBX 6 7 1 -1
BITMAP
88
88
88
A8
A8
FC
04
ENDCHAR
STARTCHAR char1066
ENCODING 1066
SWIDTH 672 0
DWIDTH 7 0
BBX 6 6 0 0
BITMAP
C0
40
40
7C
44
7C
ENDCHAR
STARTCHAR char1067
ENCODING 1067
SWIDTH 768 0
DWIDTH 8 0
BBX 6 6 1 0
BITMAP
84
84
F4
94
94
F4
ENDCHAR
STARTCHAR char1068
ENCODING 1068
SWIDTH 672 0
DWIDTH 7 0
BBX 5 6 1 0
BITMAP
80
80
F8
88
88
F8
ENDCHAR
STARTCHAR char1069
ENCODING 1069
SWIDTH 672 0
DWIDTH 7 0
BBX 5 6 1 0
BITMAP
F8
08
F8
08
08
F8
ENDCHAR
STARTCHAR char1070
ENCODING 1070
SWIDTH 768 0
DWIDTH 8 0
BBX 6 6 1 0
BITMAP
9C
94
F4
94
94
9C
ENDCHAR
STARTCHAR char1071
ENCODING 1071
SWIDTH 576 0
DWIDTH 6 0
BBX 4 6 1 0
BITMAP
F0
90
F0
30
50
90
ENDCHAR
STARTCHAR char1072
ENCODING 1072
SWIDTH 672 0
DWIDTH 7 0
BBX 5 5 1 0
BITMAP
F8
08
F8
88
F8
ENDCHAR
STARTCHAR char1073
ENCODING 1073
SWIDTH 672 0
DWIDTH 7 0
BBX 5 5 1 0
BITMAP
F8
80
F8
88
F8
ENDCHAR
STARTCHAR char1074
ENCODING 1074
SWIDTH 672 0
DWIDTH 7 0
BBX 5 5 1 0
BITMAP
F8
88
F0
88
F8
ENDCHAR
STARTCHAR char1075
ENCODING 1075
SWIDTH 672 0
DWIDTH 7 0
BBX 5 5 1 0
BITMAP
F8
80
80
80
80
ENDCHAR
STARTCHAR char1076
ENCODING 1076
SWIDTH 672 0
DWIDTH 7 0
BBX 6 6 1 -1
BITMAP
78
48
48
48
FC
84
ENDCHAR
STARTCHAR char1077
ENCODING 1077
SWIDTH 672 0
DWIDTH 7 0
BBX 5 5 1 0
BITMAP
F8
88
F8
80
F8
ENDCHAR
STARTCHAR char1078
ENCODING 1078
SWIDTH 672 0
DWIDTH 7 0
BBX 5 5 1 0
BITMAP
A8
A8
70
A8
A8
ENDCHAR
STARTCHAR char1079
ENCODING 1079
SWIDTH 672 0
DWIDTH 7 0
BBX 5 5 1 0
BITMAP
F8
08
38
08
F8
ENDCHAR
STARTCHAR char1080
ENCODING 1080
SWIDTH 672 0
DWIDTH 7 0
BBX 5 5 1 0
BITMAP
88
98
A8
C8
88
ENDCHAR
STARTCHAR char1081
ENCODING 1081
SWIDTH 672 0
DWIDTH 7 0
BBX 5 7 1 0
BITMAP
30
00
88
98
A8
C8
88
ENDCHAR
STARTCHAR char1082
ENCODING 1082
SWIDTH 672 0
DWIDTH 7 0
BBX 5 5 1 0
BITMAP
88
90
E0
90
88
ENDCHAR
STARTCHAR char1083
ENCODING 1083
SWIDTH 672 0
DWIDTH 7 0
BBX 5 5 1 0
BITMAP
38
48
88
88
88
ENDCHAR
STARTCHAR char1084
ENCODING 1084
SWIDTH 672 0
DWIDTH 7 0
BBX 5 5 1 0
BITMAP
88
D8
A8
88
88
ENDCHAR
STARTCHAR char1085
ENCODING 1085
SWIDTH 672 0
DWIDTH 7 0
BBX 5 5 1 0
BITMAP
88
88
F8
88
88
ENDCHAR
STARTCHAR char1086
ENCODING 1086
SWIDTH 672 0
DWIDTH 7 0
BBX 5 5 1 0
BITMAP
F8
88
88
88
F8
ENDCHAR
STARTCHAR char1087
ENCODING 1087
SWIDTH 672 0
DWIDTH 7 0
BBX 5 5 1 0
BITMAP
F8
88
88
88
88
ENDCHAR
STARTCHAR char1088
ENCODING 1088
SWIDTH 672 0
DWIDTH 7 0
BBX 5 5 1 0
BITMAP
F8
88
F8
80
80
ENDCHAR
STARTCHAR char1089
ENCODING 1089
SWIDTH 672 0
DWIDTH 7 0
BBX 5 5 1 0
BITMAP
F8
80
80
80
F8
ENDCHAR
STARTCHAR char1090
ENCODING 1090
SWIDTH 672 0
DWIDTH 7 0
BBX 5 5 1 0
BITMAP
F8
20
20
20
20
ENDCHAR
STARTCHAR char1091
ENCODING 1091
SWIDTH 672 0
DWIDTH 7 0
BBX 5 7 1 -2
BITMAP
88
88
88
88
F8
08
F8
ENDCHAR
STARTCHAR char1092
ENCODING 1092
SWIDTH 672 0
DWIDTH 7 0
BBX 5 5 1 0
BITMAP
F8
A8
F8
20
20
ENDCHAR
STARTCHAR char1093
ENCODING 1093
SWIDTH 672 0
DWIDTH 7 0
BBX 5 5 1 0
BITMAP
88
50
20
50
88
ENDCHAR
STARTCHAR char1094
ENCODING 1094
SWIDTH 672 0
DWIDTH 7 0
BBX 6 6 1 -1
BITMAP
88
88
88
88
FC
04
ENDCHAR
STARTCHAR char1095
ENCODING 1095
SWIDTH 672 0
DWIDTH 7 0
BBX 5 5 1 0
BITMAP
88
88
F8
08
08
ENDCHAR
STARTCHAR char1096
ENCODING 1096
SWIDTH 672 0
DWIDTH 7 0
BBX 5 5 1 0
BITMAP
88
88
A8
A8
F8
ENDCHAR
STARTCHAR char1097
ENCODING 1097
SWIDTH 672 0
DWIDTH 7 0
BBX 6 6 1 -1
BITMAP
88
88
A8
A8
FC
04
ENDCHAR
STARTCHAR char1098
ENCODING 1098
SWIDTH 672 0
DWIDTH 7 0
BBX 6 5 0 0
BITMAP
C0
40
7C
44
7C
ENDCHAR
STARTCHAR char1099
ENCODING 1099
SWIDTH 768 0
DWIDTH 8 0
BBX 6 5 1 0
BITMAP
84
84
F4
94
F4
ENDCHAR
STARTCHAR char1100
ENCODING 1100
SWIDTH 672 0
DWIDTH 7 0
BBX 5 5 1 0
BITMAP
80
80
F8
88
F8
ENDCHAR
STARTCHAR char1101
ENCODING 1101
SWIDTH 672 0
DWIDTH 7 0
BBX 5 5 1 0
BITMAP
F8
08
F8
08
F8
ENDCHAR
STARTCHAR char1102
ENCODING 1102
SWIDTH 768 0
DWIDTH 8 0
BBX 6 5 1 0
BITMAP
9C
94
F4
94
9C
ENDCHAR
STARTCHAR char1103
ENCODING 1103
SWIDTH 576 0
DWIDTH 6 0
BBX 4 5 1 0
BITMAP
F0
90
F0
50
90
ENDCHAR
STARTCHAR char1105
ENCODING 1105
SWIDTH 576 0
DWIDTH 6 0
BBX 6 7 0 0
BITMAP
28
00
7C
44
7C
40
7C
ENDCHAR
STARTCHAR uni05XX(0)
ENCODING 1488
SWIDTH 576 0
DWIDTH 6 0
BBX 6 10 0 -2
BITMAP
00
00
00
88
48
A8
90
88
00
00
ENDCHAR
STARTCHAR uni05XX(1)
ENCODING 1489
SWIDTH 576 0
DWIDTH 6 0
BBX 6 10 0 -2
BITMAP
00
00
00
E0
10
10
10
F8
00
00
ENDCHAR
STARTCHAR uni05XX(2)
ENCODING 1490
SWIDTH 576 0
DWIDTH 6 0
BBX 6 10 0 -2
BITMAP
00
00
00
70
08
38
48
48
00
00
ENDCHAR
STARTCHAR uni05XX(3)
ENCODING 1491
SWIDTH 576 0
DWIDTH 6 0
BBX 6 10 0 -2
BITMAP
00
00
00
F8
10
10
10
10
00
00
ENDCHAR
STARTCHAR uni05XX(4)
ENCODING 1492
SWIDTH 576 0
DWIDTH 6 0
BBX 6 10 0 -2
BITMAP
00
00
00
F0
08
88
88
88
00
00
ENDCHAR
STARTCHAR uni05XX(5)
ENCODING 1493
SWIDTH 576 0
DWIDTH 6 0
BBX 6 10 0 -2
BITMAP
00
00
00
60
10
10
10
10
00
00
ENDCHAR
STARTCHAR uni05XX(6)
ENCODING 1494
SWIDTH 576 0
DWIDTH 6 0
BBX 6 10 0 -2
BITMAP
00
00
00
60
30
20
20
20
00
00
ENDCHAR
STARTCHAR uni05XX(7)
ENCODING 1495
SWIDTH 576 0
DWIDTH 6 0
BBX 6 10 0 -2
BITMAP
00
00
00
F0
48
48
48
48
00
00
ENDCHAR
STARTCHAR uni05XX(8)
ENCODING 1496
SWIDTH 576 0
DWIDTH 6 0
BBX 6 10 0 -2
BITMAP
00
00
00
98
A8
88
88
70
00
00
ENDCHAR
STARTCHAR uni05XX(9)
ENCODING 1497
SWIDTH 576 0
DWIDTH 6 0
BBX 6 10 0 -2
BITMAP
00
00
00
60
10
10
00
00
00
00
ENDCHAR
STARTCHAR uni05XX(10)
ENCODING 1498
SWIDTH 576 0
DWIDTH 6 0
BBX 6 10 0 -2
BITMAP
00
00
00
F0
08
08
08
08
08
00
ENDCHAR
STARTCHAR uni05XX(11)
ENCODING 1499
SWIDTH 576 0
DWIDTH 6 0
BBX 6 10 0 -2
BITMAP
00
00
00
F0
08
08
08
F0
00
00
ENDCHAR
STARTCHAR uni05XX(12)
ENCODING 1500
SWIDTH 576 0
DWIDTH 6 0
BBX 6 10 0 -2
BITMAP
00
00
40
70
08
08
10
20
00
00
ENDCHAR
STARTCHAR uni05XX(13)
ENCODING 1501
SWIDTH 576 0
DWIDTH 6 0
BBX 6 10 0 -2
BITMAP
00
00
00
F0
88
88
88
F8
00
00
ENDCHAR
STARTCHAR uni05XX(14)
ENCODING 1502
SWIDTH 576 0
DWIDTH 6 0
BBX 6 10 0 -2
BITMAP
00
00
00
B0
48
88
88
B0
00
00
ENDCHAR
STARTCHAR uni05XX(15)
ENCODING 1503
SWIDTH 576 0
DWIDTH 6 0
BBX 6 10 0 -2
BITMAP
00
00
00
30
08
08
08
08
08
00
ENDCHAR
STARTCHAR uni05XX(16)
ENCODING 1504
SWIDTH 576 0
DWIDTH 6 0
BBX 6 10 0 -2
BITMAP
00
00
00
10
08
08
08
38
00
00
ENDCHAR
STARTCHAR uni05XX(17)
ENCODING 1505
SWIDTH 576 0
DWIDTH 6 0
BBX 6 10 0 -2
BITMAP
00
00
00
F0
88
88
88
70
00
00
ENDCHAR
STARTCHAR uni05XX(18)
ENCODING 1506
SWIDTH 576 0
DWIDTH 6 0
BBX 6 10 0 -2
BITMAP
00
00
00
48
48
48
48
F0
00
00
ENDCHAR
STARTCHAR uni05XX(19)
ENCODING 1507
SWIDTH 576 0
DWIDTH 6 0
BBX 6 10 0 -2
BITMAP
00
00
00
F0
88
68
08
08
08
00
ENDCHAR
STARTCHAR uni05XX(20)
ENCODING 1508
SWIDTH 576 0
DWIDTH 6 0
BBX 6 10 0 -2
BITMAP
00
00
00
F0
88
68
08
F0
00
00
ENDCHAR
STARTCHAR uni05XX(21)
ENCODING 1509
SWIDTH 576 0
DWIDTH 6 0
BBX 6 10 0 -2
BITMAP
00
00
00
88
88
50
20
10
08
00
ENDCHAR
STARTCHAR uni05XX(22)
ENCODING 1510
SWIDTH 576 0
DWIDTH 6 0
BBX 6 10 0 -2
BITMAP
00
00
00
88
50
20
10
F8
00
00
ENDCHAR
STARTCHAR uni05XX(23)
ENCODING 1511
SWIDTH 576 0
DWIDTH 6 0
BBX 6 10 0 -2
BITMAP
00
00
00
F0
08
88
90
80
80
00
ENDCHAR
STARTCHAR uni05XX(24)
ENCODING 1512
SWIDTH 576 0
DWIDTH 6 0
BBX 6 10 0 -2
BITMAP
00
00
00
F0
08
08
08
08
00
00
ENDCHAR
STARTCHAR uni05XX(25)
ENCODING 1513
SWIDTH 576 0
DWIDTH 6 0
BBX 6 10 0 -2
BITMAP
00
00
00
A8
A8
C8
88
F0
00
00
ENDCHAR
STARTCHAR uni05XX(26)
ENCODING 1514
SWIDTH 576 0
DWIDTH 6 0
BBX 6 10 0 -2
BITMAP
00
00
00
F0
48
48
48
C8
00
00
ENDCHAR
STARTCHAR underscoredbl
ENCODING 8215
SWIDTH 750 0
DWIDTH 6 0
BBX 6 3 0 -1
BITMAP
FC
00
FC
ENDCHAR
ENDFONT
